<?xml version="1.0" encoding="iso-8859-1"?>
<!-- Uploaded to: SVG Repo, www.svgrepo.com, Generator: SVG Repo Mixer Tools -->
<svg height="800px" width="800px" version="1.1" id="Layer_1" xmlns="http://www.w3.org/2000/svg" xmlns:xlink="http://www.w3.org/1999/xlink" 
	 viewBox="0 0 503.754 503.754" xml:space="preserve">
<g transform="translate(1 1)">
	<path style="fill:#FFE100;" d="M494.358,250.877c0-134.469-109.012-243.481-243.481-243.481S7.396,116.408,7.396,250.877
		s109.012,243.481,243.481,243.481S494.358,385.346,494.358,250.877"/>
	<g>
		<path style="fill:#FFA800;" d="M9.757,284.46h68.099c-2.107-10.881-3.291-22.09-3.291-33.584s1.184-22.703,3.291-33.584H9.757
			c-1.52,10.982-2.359,22.182-2.359,33.584S8.237,273.479,9.757,284.46"/>
		<path style="fill:#FFA800;" d="M58.466,101.762l48.117,48.117c12.972-18.479,29.36-34.339,48.293-46.69l-48.36-48.36
			C88.415,68.179,72.253,83.997,58.466,101.762"/>
		<path style="fill:#FFA800;" d="M250.877,7.396c-11.402,0-22.602,0.848-33.584,2.359v68.108c10.881-2.116,22.09-3.3,33.584-3.3
			s22.702,1.184,33.584,3.3V9.755C273.479,8.244,262.279,7.396,250.877,7.396"/>
		<path style="fill:#FFA800;" d="M396.667,55.854l-48.26,48.26c18.79,12.535,35.036,28.563,47.823,47.168l48.142-48.142
			C430.712,85.274,414.667,69.33,396.667,55.854"/>
		<path style="fill:#FFA800;" d="M427.191,250.877c0,11.494-1.184,22.702-3.3,33.584h68.108c1.511-10.982,2.359-22.182,2.359-33.584
			s-0.848-22.602-2.359-33.584h-68.108C426.007,228.174,427.191,239.383,427.191,250.877"/>
		<path style="fill:#FFA800;" d="M398.566,346.874c-12.35,18.933-28.21,35.33-46.69,48.302l48.117,48.108
			c17.757-13.786,33.575-29.94,46.933-48.05L398.566,346.874z"/>
		<path style="fill:#FFA800;" d="M217.293,423.894v68.099c10.982,1.52,22.182,2.368,33.584,2.368s22.602-0.848,33.584-2.368v-68.099
			c-10.881,2.107-22.09,3.3-33.584,3.3C239.383,427.193,228.174,426.001,217.293,423.894"/>
		<path style="fill:#FFA800;" d="M104.117,348.404l-48.26,48.26c13.475,18.009,29.419,34.045,47.286,47.705l48.142-48.142
			C132.68,383.44,116.644,367.194,104.117,348.404"/>
	</g>
	<path d="M250.877,502.754C111.992,502.754-1,389.762-1,250.877S111.992-1,250.877-1s251.877,112.992,251.877,251.877
		S389.762,502.754,250.877,502.754z M250.877,15.792c-129.628,0-235.085,105.457-235.085,235.085s105.457,235.085,235.085,235.085
		s235.085-105.457,235.085-235.085S380.505,15.792,250.877,15.792z"/>
	<path d="M250.877,435.587c-101.849,0-184.71-82.86-184.71-184.71s82.86-184.71,184.71-184.71s184.71,82.86,184.71,184.71
		S352.726,435.587,250.877,435.587z M250.877,82.959c-92.589,0-167.918,75.329-167.918,167.918
		c0,92.593,75.329,167.918,167.918,167.918c92.593,0,167.918-75.325,167.918-167.918C418.795,158.288,343.47,82.959,250.877,82.959z
		"/>
	<path d="M88.034,292.856H2.444l-1.004-7.24C-0.18,273.925-1,262.233-1,250.877s0.82-23.04,2.439-34.736l1.004-7.244h85.591
		l-1.935,9.991c-2.083,10.757-3.14,21.519-3.14,31.989s1.058,21.236,3.14,31.985L88.034,292.856z M17.177,276.065h50.769
		c-1.181-8.47-1.779-16.902-1.779-25.188c0-8.285,0.599-16.722,1.779-25.188H17.177c-0.918,8.498-1.386,16.943-1.386,25.188
		C15.792,259.125,16.259,267.57,17.177,276.065z"/>
	<path d="M107.716,162.884l-60.419-60.419l4.538-5.846c14.299-18.436,31.021-34.772,49.695-48.547l5.813-4.288l60.788,60.788
		l-8.666,5.649c-18.095,11.807-33.575,26.77-46.009,44.484L107.716,162.884z M69.721,101.145l35.92,35.92
		c10.437-13.315,22.56-25.056,36.187-35.051L105.765,65.95C92.56,76.338,80.475,88.133,69.721,101.145z"/>
	<path d="M292.856,88.051l-9.995-1.947c-21.482-4.173-42.492-4.173-63.965,0l-9.999,1.947V2.431l7.252-0.996
		c23.54-3.235,45.944-3.226,69.451,0l7.256,0.996L292.856,88.051L292.856,88.051z M250.877,66.167
		c8.289,0,16.726,0.599,25.188,1.783V17.182c-17.087-1.849-33.284-1.849-50.375,0V67.95
		C234.151,66.766,242.583,66.167,250.877,66.167z"/>
	<path d="M395.034,164.356l-5.723-8.318c-12.258-17.825-27.59-32.948-45.563-44.939l-8.519-5.682l60.641-60.645l5.83,4.358
		c18.522,13.865,35.125,30.32,49.342,48.912l4.469,5.838L395.034,164.356z M361.385,103.01
		c13.529,10.126,25.54,21.982,35.855,35.391l35.92-35.92c-10.692-13.123-22.687-25.011-35.781-35.465L361.385,103.01z"/>
	<path d="M499.31,292.856h-85.599l1.943-9.995c2.083-10.724,3.14-21.49,3.14-31.985c0-10.499-1.058-21.26-3.14-31.981l-1.943-9.999
		h85.599l1,7.248c1.623,11.725,2.443,23.408,2.443,34.731s-0.82,23.015-2.443,34.731L499.31,292.856z M433.807,276.065h50.769
		c0.918-8.511,1.386-16.96,1.386-25.188c0-8.228-0.467-16.673-1.386-25.188h-50.769c1.181,8.453,1.779,16.886,1.779,25.188
		C435.587,259.178,434.988,267.611,433.807,276.065z"/>
	<path d="M399.297,454.461l-60.428-60.419l8.183-5.739c17.694-12.422,32.665-27.902,44.48-46.022l5.657-8.658l60.78,60.78
		l-4.288,5.813c-13.75,18.645-30.083,35.371-48.539,49.703L399.297,454.461z M364.689,396.116l35.92,35.912
		c13.028-10.774,24.819-22.851,35.191-36.043l-36.06-36.068C389.737,373.56,377.996,385.679,364.689,396.116z"/>
	<path d="M250.877,502.754c-11.323,0-23.007-0.82-34.731-2.443l-7.248-1V413.72l9.991,1.935c21.535,4.165,42.435,4.165,63.974,0
		l9.995-1.935v85.591l-7.248,1C273.892,501.934,262.2,502.754,250.877,502.754z M225.689,484.576
		c17.042,1.837,33.362,1.837,50.375,0v-50.769c-16.964,2.361-33.436,2.361-50.375,0V484.576z"/>
	<path d="M103.887,455.502l-5.842-4.46C79.466,436.833,63.006,420.23,49.133,401.7l-4.358-5.83l60.645-60.641l5.682,8.519
		c11.995,17.981,27.114,33.313,44.939,45.554l8.322,5.715L103.887,455.502z M67.02,397.379
		c10.462,13.102,22.351,25.098,35.465,35.773l35.916-35.92c-13.406-10.306-25.261-22.31-35.387-35.847L67.02,397.379z"/>
	<path d="M250.877,360.024c-32.407,0-58.771-26.368-58.771-58.771c0-4.641,3.759-8.396,8.396-8.396s8.396,3.755,8.396,8.396
		c0,23.146,18.833,41.979,41.979,41.979s41.979-18.833,41.979-41.979s-18.833-41.979-41.979-41.979
		c-32.407,0-58.771-26.364-58.771-58.771s26.364-58.771,58.771-58.771c32.403,0,58.771,26.364,58.771,58.771
		c0,4.637-3.755,8.396-8.396,8.396s-8.396-3.759-8.396-8.396c0-23.146-18.833-41.979-41.979-41.979s-41.979,18.833-41.979,41.979
		s18.833,41.979,41.979,41.979c32.403,0,58.771,26.368,58.771,58.771S283.28,360.024,250.877,360.024z"/>
	<path d="M250.877,158.522c-4.637,0-8.396-3.759-8.396-8.396v-25.188c0-4.637,3.759-8.396,8.396-8.396
		c4.641,0,8.396,3.759,8.396,8.396v25.188C259.273,154.763,255.518,158.522,250.877,158.522z"/>
	<path d="M250.877,385.211c-4.637,0-8.396-3.755-8.396-8.396v-25.188c0-4.641,3.759-8.396,8.396-8.396
		c4.641,0,8.396,3.755,8.396,8.396v25.188C259.273,381.456,255.518,385.211,250.877,385.211z"/>
</g>
</svg>